<svg
  width="16"
  viewBox="0 0 6 16"
  fill="none"
  xmlns="http://www.w3.org/2000/svg"
  class="transition-all">
  <path d="M3.375 1C3.375 0.792893 3.20711 0.625 3 0.625C2.79289 0.625 2.625 0.792893 2.625 1L3.375 1ZM2.73484 15.2652C2.88128 15.4116 3.11872 15.4116 3.26517 15.2652L5.65165 12.8787C5.7981 12.7322 5.7981 12.4948 5.65165 12.3483C5.5052 12.2019 5.26777 12.2019 5.12132 12.3483L3 14.4697L0.87868 12.3483C0.732234 12.2019 0.494797 12.2019 0.34835 12.3483C0.201903 12.4948 0.201903 12.7322 0.34835 12.8787L2.73484 15.2652ZM2.625 1L2.625 15L3.375 15L3.375 1L2.625 1Z" fill="black" />
</svg>